<?xml version="1.0" encoding="UTF-8"?>
<svg xmlns="http://www.w3.org/2000/svg" viewBox="0 0 1124.61 842">
  <defs>
    <style>
      .cls-1 {
        fill: #fff;
      }

      .cls-2 {
        stroke: #3b3833;
        stroke-miterlimit: 10;
      }

      .cls-3 {
        fill: #3b3833;
      }
    </style>
  </defs>
  <g id="Layer_11" data-name="Layer 11">
    <g>
      <path class="cls-1" d="m555,789.5c-50.96,0-100.4-9.98-146.94-29.67-44.95-19.01-85.32-46.23-119.99-80.9-34.67-34.67-61.89-75.04-80.9-119.99-19.68-46.54-29.67-95.98-29.67-146.94s9.98-100.4,29.67-146.94c19.01-44.95,46.23-85.32,80.9-119.99,34.67-34.67,75.04-61.89,119.99-80.9,46.54-19.68,95.98-29.67,146.94-29.67s100.4,9.98,146.94,29.67c44.95,19.01,85.32,46.23,119.99,80.9,34.67,34.67,61.89,75.04,80.9,119.99,19.68,46.54,29.67,95.98,29.67,146.94s-9.98,100.4-29.67,146.94c-19.01,44.95-46.23,85.32-80.9,119.99s-75.04,61.89-119.99,80.9c-46.54,19.68-95.98,29.67-146.94,29.67Z"/>
      <path class="cls-1" d="m555,35c50.9,0,100.27,9.97,146.75,29.63,44.89,18.99,85.21,46.17,119.83,80.79,34.62,34.62,61.81,74.94,80.79,119.83,19.66,46.48,29.63,95.85,29.63,146.75s-9.97,100.27-29.63,146.75c-18.99,44.89-46.17,85.21-80.79,119.83s-74.94,61.81-119.83,80.79c-46.48,19.66-95.85,29.63-146.75,29.63s-100.27-9.97-146.75-29.63c-44.89-18.99-85.21-46.17-119.83-80.79-34.62-34.62-61.81-74.94-80.79-119.83-19.66-46.48-29.63-95.85-29.63-146.75s9.97-100.27,29.63-146.75c18.99-44.89,46.17-85.21,80.79-119.83,34.62-34.62,74.94-61.81,119.83-80.79,46.48-19.66,95.85-29.63,146.75-29.63m0-1c-208.76,0-378,169.24-378,378s169.24,378,378,378,378-169.24,378-378S763.76,34,555,34h0Z"/>
    </g>
  </g>
  <g id="Layer_9" data-name="Layer 9">
    <path class="cls-3" d="m400.43,122.27c-14.76,7.51-159.3,84.32-186.61,256.31-2.01,12.64-25.72,180.89,101.45,304.72,15.99,15.57,113.14,107.05,260.87,98.26,144.73-8.61,230.14-107.06,251.95-134.33,46.12-57.64,63.77-116.82,71.16-151.03-11.45,28.86-32.45,70.03-70.98,108.73-19.89,19.98-76.63,71.62-165.01,88.04-7.12,1.32-37.18,6.64-76.97,4.36-22.89-1.31-86.29-5.65-149.58-43.57-104.49-62.6-134.42-172.24-140.14-195.32-1.96-7.9-21.97-91.91,6.67-182.5,3.07-9.72,5.93-17.26,7.85-22.26,25.49-66.2,65.39-109.24,89.31-131.42Z"/>
    <path class="cls-3" d="m322.01,431.59c3.84,24.2,13.18,62.44,38.48,102.2,37.67,59.21,88.14,86.33,108.19,96.75,40.76,21.2,79.29,29.07,107.46,31.95,27.86,2.85,72.71,3.29,123.21-13.59,21.33-7.13,94.83-32.87,146.89-108.39,48.65-70.56,49.13-141.86,49.37-178.62.2-29.11.04-69.42-20.33-116.18-23.61-54.17-61.1-86.55-81.32-101.65-5.5-4.67-12.77-5-16.65-1.83-4.87,3.98-5.39,14.29,2.13,20.71,17.51,18.92,48.83,58.79,53.91,114.9,1.08,11.96.83,23.11-.18,33.22-.11,1.91-.44,4.09-1.45,4.36-2.56.67-7.62-11.26-15.25-28.32-1.25-2.8-21.78-39.21-21.78-39.21-8.71-8.71-8.71,4.36-8.71,4.36,1.69,18.64,3.39,37.27,5.08,55.91,1.95,21.45,12.04,43,31.22,58.81,9.83,8.1,19.73,11.78,23.96,23.96,1.75,5.05,2.11,10.36,0,23.24-3.97,24.19-11.26,42.11-13.07,46.47-2.71,6.55-11.24,26.86-24.69,46.47-29.24,42.63-81.85,82.07-143.77,95.84-27.84,6.19-52.08,5.98-63.9,5.81-9.73-.14-36.79-.99-68.25-8.71-77.51-19.02-128.32-66.58-145.22-82.77-18.32-17.56-43.42-45.48-65.35-85.68Z"/>
    <path d="m396.8,168.02c-13.58,12.87-34.28,35.72-49.37,69.71-24.37,54.86-18.6,103.76-16.7,116.9,8.87,61.45,42.71,100.36,58.63,118.17,5.23,5.86,29.57,32.51,69.89,53.91,29.07,15.44,49.41,26.24,74.06,20.33,33.2-7.95,49.17-40.2,52.28-46.47,3.3-6.67,17.81-35.96,5.72-66.03-5.84-14.54-15.42-23.08-23.15-29.82-25.2-21.97-47.24-22.06-78.42-34.85-16.4-6.73-39.18-18.55-63.9-40.66-8.04-9.46-16.41-21.47-23.24-36.3-24.53-53.36-11.66-105.59-5.81-124.89Z"/>
    <path d="m756.22,337.2c10.44,15,28.83,46.33,29.75,88.71.32,14.51-3.68,73.79-47.18,113.15-3.3,2.99-31.42,27.6-68.06,20-19.94-4.13-32.84-15.82-38.29-21.46-4.37-5.95-12.97-19.48-12.41-37.13.9-28.37,24.8-46.59,33.09-52.9,4.18-3.19,7.6-5.25,10.74-6.78,9.4-4.56,16.98-6.57,18.87-7.04,14.54-3.62,53.22-24.95,67.69-63.15,2.72-7.17,5.9-18.44,5.81-33.4Z"/>
    <path d="m605.92,231.92c-.62-14.39-10.05-24.33-14.52-29.04-18.64-19.64-44.93-20.18-52.28-20.33-5.38-.11-41.38-.3-62.44,26.14-4.27,5.36-12.4,15.57-11.62,29.04,1.13,19.38,19.86,31.36,27.59,36.3,17.23,11.02,34.37,11.5,42.11,11.62,8.33.13,25.23.38,42.11-10.17,4.2-2.63,30.11-18.81,29.04-43.57Zm-45.74,19.6c-12.03,0-21.78-7.15-21.78-15.97s9.75-15.97,21.78-15.97,21.78,7.15,21.78,15.97-9.75,15.97-21.78,15.97Z"/>
    <path class="cls-2" d="m720.64,266.77c-10.14-17.69-34.45-31.91-49.91-23.12-15.41,8.76-16.52,37.24-5.27,55.07,11.32,17.95,37.75,29.23,52.28,18.88,13.65-9.72,11.93-35.07,2.9-50.83Z"/>
    <ellipse class="cls-1" cx="686.2" cy="274.9" rx="10.73" ry="15.15" transform="translate(-50.37 337.38) rotate(-26.68)"/>
    <path class="cls-2" d="m636.41,369.87c-2.43-1.35-6.19-3.67-10.17-7.26-1.64-1.48-18.01-16.69-17.43-37.76.12-4.21.35-9.98,4.36-13.07.96-.74,3.51-2.39,13.07-1.45,4.66.46,9,1.34,18.88,4.36,16.22,4.96,18.64,6.92,20.33,8.71,1.31,1.39,5.12,5.51,5.81,11.62.9,7.97-4.07,14.36-8.71,20.33-2.61,3.36-4.79,5.27-8.71,8.71-8.13,7.13-11.27,7.42-13.07,7.26-1.41-.12-2.47-.41-4.36-1.45Z"/>
    <ellipse class="cls-1" cx="560.17" cy="235.55" rx="21.78" ry="15.97"/>
    <ellipse class="cls-1" cx="686.2" cy="274.9" rx="10.73" ry="15.15" transform="translate(-50.37 337.38) rotate(-26.68)"/>
    <path class="cls-2" d="m421.1,140.15c.02-9.28,1.28-35.01,19.22-60.01,14.81-20.63,33.42-30.26,42.16-34.1,5.77-2.1,15.45-4.81,27.59-4.36,0,0,14.71.55,29.04,7.26,21.52,10.08,39.53,36.3,46.47,69.71-19.32-3.73-47.61-6.96-81.32-2.9-36.35,4.38-64.79,15.51-83.16,24.41Z"/>
    <path class="cls-2" d="m688.69,163.66c2.31-1.46,26.65-16.29,54.06-4.98,23.89,9.85,31.89,32.04,33.07,35.48,1.91,5.38,6.55,20.65,1.45,39.21-5.2,18.95-17.39,29.82-21.78,33.4-1.99-10.55-5.96-25.61-14.52-42.11-6.04-11.64-12.1-19.63-15.97-24.69-7.54-9.84-19.22-23.13-36.3-36.3Z"/>
  </g>
</svg>