<!--
AnimCJK 2016-2023 Copyright FM&SH - https://github.com/parsimonhi/animCJK
Derived from:
    MakeMeAHanzi project - https://github.com/skishore/makemeahanzi
    Arphic PL KaitiM GB font
    Arphic PL UKai font
You can redistribute and/or modify this file under the terms of the Arphic Public License
as published by Arphic Technology Co., Ltd.
You should have received a copy of this license along with this file.
If not, see http://ftp.gnu.org/non-gnu/chinese-fonts-truetype/LICENSE.
-->
<svg id="z28903" class="acjk" version="1.1" viewBox="0 0 1024 1024" xmlns="http://www.w3.org/2000/svg" xmlns:xlink="http://www.w3.org/1999/xlink">
    <style>
    <![CDATA[
    @keyframes zk {to {stroke-dashoffset:0;}}
    @keyframes zz {to {opacity:1;}}
    svg.acjk path[clip-path] {--t:0.8s;animation:zk var(--t) linear forwards var(--d);stroke-dasharray:3337;stroke-dashoffset:3339;stroke-width:128;stroke-linecap:round;fill:none;}
    svg.acjk path[id] {fill:#ccc;}
    svg.acjk circle, svg.acjk text {opacity:0;animation:zz 0.01s linear forwards var(--d);}
    svg.acjk text {text-anchor:middle;font-family:arial,sans-serif;font-weight:normal;}
    ]]>
    </style>
    <path id="z28903d1" d="M157 343Q153 410 139 476Q132 507 155 532Q167 545 180 529Q216 475 194 384Q190 356 176 336Q170 332 165 331Q158 335 157 343Z"></path>
    <path id="z28903d2" d="M310 420Q418 348 428 344Q446 337 437 322Q427 309 405 297Q386 287 376 288Q366 289 369 300Q370 315 325 378Q318 385 312 395C308 402 303 425 310 420Z"></path>
    <path id="z28903d3" d="M298 607Q305 535 310 420C311 403 311 403 312 395Q313 250 340 193Q346 180 336 169Q314 153 277 141Q253 135 245 142Q236 148 243 160Q265 194 268 240Q275 400 260 549Q256 601 243 656Q213 774 88 858Q76 865 76 870Q77 874 89 873Q102 877 135 862Q249 820 286 677Q289 656 294 636C297 617 297 617 298 607Z"></path>
    <path id="z28903d4" d="M294 636Q309 645 374 708Q384 718 397 718Q404 718 409 707Q413 697 407 673Q403 651 370 633Q337 618 301 607Q300 606 298 607C288 605 286 630 294 636Z"></path>
    <path id="z28903d5" d="M627 278Q759 209 762 207Q768 197 762 190Q752 181 723 181Q701 181 603 240C580 252 580 252 569 258Q526 276 480 294Q447 307 476 318Q515 327 590 296C615 284 615 284 627 278Z"></path>
    <path id="z28903d6" d="M676 407Q784 515 872 521Q894 517 886 489Q876 464 868 351Q867 341 862 339Q858 339 855 350Q845 375 836 401Q824 435 813 434Q780 435 715 380C694 359 694 359 683 349Q652 316 627 278C611 253 611 253 603 240Q570 170 575 123Q576 105 540 91Q503 78 494 83Q484 90 491 104Q515 123 528 163Q547 215 569 258C583 283 583 283 590 296Q591 297 593 300Q618 340 650 377C667 397 667 397 676 407Z"></path>
    <path id="z28903d7" d="M715 380Q748 347 781 335Q793 329 794 317Q795 307 780 281Q767 260 752 255Q737 251 737 270Q738 294 724 309Q705 328 683 349C661 368 661 368 650 377Q547 449 493 479Q483 483 480 488Q474 495 485 497Q527 503 676 407C702 389 702 389 715 380Z"></path>
    <path id="z28903d8" d="M647 577Q654 574 665 573Q713 564 752 557Q762 558 770 545Q771 535 749 525Q707 509 634 536Q619 539 605 545Q598 546 435 581Q407 585 429 601Q465 622 489 615Q492 614 497 614C508 614 517 607 528 605Q562 595 606 586C633 580 633 580 647 577Z"></path>
    <path id="z28903d9" d="M498 615Q510 736 340 873Q333 879 339 882Q366 888 433 836Q494 793 543 682Q552 664 562 648Q569 639 564 631Q558 621 528 605C519 599 495 603 497 614C498 615 498 615 498 615Z"></path>
    <path id="z28903d10" d="M606 586Q625 623 619 675Q610 823 632 853Q651 883 721 895Q773 904 854 901Q927 900 957 884Q985 869 974 839Q956 793 946 710Q945 694 937 690Q930 686 926 705Q911 805 897 824Q876 849 770 854Q715 853 690 843Q669 833 664 819Q646 765 669 685Q673 658 682 644Q697 610 647 577C636 569 600 573 606 586Z"></path>
    <defs>
        <clipPath id="z28903c1"><use xlink:href="#z28903d1"></use></clipPath>
        <clipPath id="z28903c2"><use xlink:href="#z28903d2"></use></clipPath>
        <clipPath id="z28903c3"><use xlink:href="#z28903d3"></use></clipPath>
        <clipPath id="z28903c4"><use xlink:href="#z28903d4"></use></clipPath>
        <clipPath id="z28903c5"><use xlink:href="#z28903d5"></use></clipPath>
        <clipPath id="z28903c6"><use xlink:href="#z28903d6"></use></clipPath>
        <clipPath id="z28903c7"><use xlink:href="#z28903d7"></use></clipPath>
        <clipPath id="z28903c8"><use xlink:href="#z28903d8"></use></clipPath>
        <clipPath id="z28903c9"><use xlink:href="#z28903d9"></use></clipPath>
        <clipPath id="z28903c10"><use xlink:href="#z28903d10"></use></clipPath>
    </defs>
    <path style="--d:1s;" pathLength="3333" clip-path="url(#z28903c1)" d="M167 338L164 531" stroke="rgb(146,98,18)"></path>
    <path style="--d:2s;" pathLength="3333" clip-path="url(#z28903c2)" d="M436 331L389 324L317 412" stroke="rgb(10,175,98)"></path>
    <path style="--d:3s;" pathLength="3333" clip-path="url(#z28903c3)" d="M247 149L302 195L268 650L198 794L84 868" stroke="rgb(140,20,183)"></path>
    <path style="--d:4s;" pathLength="3333" clip-path="url(#z28903c4)" d="M305 613L400 709" stroke="rgb(159,35,133)"></path>
    <path style="--d:5s;" pathLength="3333" clip-path="url(#z28903c5)" d="M467 306L758 197" stroke="rgb(122,169,23)"></path>
    <path style="--d:6s;" pathLength="3333" clip-path="url(#z28903c6)" d="M495 89L545 125L621 307L740 431L853 471L862 350" stroke="rgb(31,128,183)"></path>
    <path style="--d:7s;" pathLength="3333" clip-path="url(#z28903c7)" d="M749 258L756 317L486 490" stroke="rgb(181,119,12)"></path>
    <path style="--d:8s;" pathLength="3333" clip-path="url(#z28903c8)" d="M430 593L766 542" stroke="rgb(28,160,106)"></path>
    <path style="--d:9s;" pathLength="3333" clip-path="url(#z28903c9)" d="M504 618L530 653L483 750L343 876" stroke="rgb(127,25,156)"></path>
    <path style="--d:10s;" pathLength="3333" clip-path="url(#z28903c10)" d="M612 587L651 621L637 793L653 844L683 863L805 877L929 852L937 699" stroke="rgb(168,3,129)"></path>
    <circle cx="166.68915672126155" cy="357.99758426550727" r="40" stroke="rgb(146,98,18)" fill="#fff" stroke-width="5" style="--d: 1s;"></circle>
    <text x="166.68915672126155" y="377.99758426550727" text-anchor="middle" font-family="arial" font-weight="normal" fill="rgb(146,98,18)" font-size="60" style="--d: 1s;">1</text>
    <circle cx="416.21819644236365" cy="328.05377393822437" r="40" stroke="rgb(10,175,98)" fill="#fff" stroke-width="5" style="--d: 2s;"></circle>
    <text x="416.21819644236365" y="348.05377393822437" text-anchor="middle" font-family="arial" font-weight="normal" fill="rgb(10,175,98)" font-size="60" style="--d: 2s;">2</text>
    <circle cx="262.34153740304816" cy="161.83110400982213" r="40" stroke="rgb(140,20,183)" fill="#fff" stroke-width="5" style="--d: 3s;"></circle>
    <text x="262.34153740304816" y="181.83110400982213" text-anchor="middle" font-family="arial" font-weight="normal" fill="rgb(140,20,183)" font-size="60" style="--d: 3s;">3</text>
    <circle cx="319.06790021883415" cy="627.2159833790324" r="40" stroke="rgb(159,35,133)" fill="#fff" stroke-width="5" style="--d: 4s;"></circle>
    <text x="319.06790021883415" y="647.2159833790324" text-anchor="middle" font-family="arial" font-weight="normal" fill="rgb(159,35,133)" font-size="60" style="--d: 4s;">4</text>
    <circle cx="485.72922722055995" cy="298.98458499298613" r="40" stroke="rgb(122,169,23)" fill="#fff" stroke-width="5" style="--d: 5s;"></circle>
    <text x="485.72922722055995" y="318.98458499298613" text-anchor="middle" font-family="arial" font-weight="normal" fill="rgb(122,169,23)" font-size="60" style="--d: 5s;">5</text>
    <circle cx="511.2306868290299" cy="100.68609451690152" r="40" stroke="rgb(31,128,183)" fill="#fff" stroke-width="5" style="--d: 6s;"></circle>
    <text x="511.2306868290299" y="120.68609451690152" text-anchor="middle" font-family="arial" font-weight="normal" fill="rgb(31,128,183)" font-size="60" style="--d: 6s;">6</text>
    <circle cx="751.3563547975658" cy="277.86070472234024" r="40" stroke="rgb(181,119,12)" fill="#fff" stroke-width="5" style="--d: 7s;"></circle>
    <text x="751.3563547975658" y="297.86070472234024" text-anchor="middle" font-family="arial" font-weight="normal" fill="rgb(181,119,12)" font-size="60" style="--d: 7s;">7</text>
    <circle cx="449.7735169814958" cy="589.9986626010229" r="40" stroke="rgb(28,160,106)" fill="#fff" stroke-width="5" style="--d: 8s;"></circle>
    <text x="449.7735169814958" y="609.9986626010229" text-anchor="middle" font-family="arial" font-weight="normal" fill="rgb(28,160,106)" font-size="60" style="--d: 8s;">8</text>
    <circle cx="515.9264800267518" cy="634.054876959089" r="40" stroke="rgb(127,25,156)" fill="#fff" stroke-width="5" style="--d: 9s;"></circle>
    <text x="515.9264800267518" y="654.054876959089" text-anchor="middle" font-family="arial" font-weight="normal" fill="rgb(127,25,156)" font-size="60" style="--d: 9s;">9</text>
    <circle cx="627.0754545981557" cy="600.1427040086486" r="40" stroke="rgb(168,3,129)" fill="#fff" stroke-width="5" style="--d: 10s;"></circle>
    <text x="627.0754545981557" y="620.1427040086486" text-anchor="middle" font-family="arial" font-weight="normal" fill="rgb(168,3,129)" font-size="60" style="--d: 10s;">10</text>
    </svg>