<!--
AnimCJK 2016-2023 Copyright FM&SH - https://github.com/parsimonhi/animCJK
Derived from:
    MakeMeAHanzi project - https://github.com/skishore/makemeahanzi
    Arphic PL KaitiM GB font
    Arphic PL UKai font
You can redistribute and/or modify this file under the terms of the Arphic Public License
as published by Arphic Technology Co., Ltd.
You should have received a copy of this license along with this file.
If not, see http://ftp.gnu.org/non-gnu/chinese-fonts-truetype/LICENSE.
-->
<svg id="z28180" class="acjk" version="1.1" viewBox="0 0 1024 1024" xmlns="http://www.w3.org/2000/svg" xmlns:xlink="http://www.w3.org/1999/xlink">
    <style>
    <![CDATA[
    @keyframes zk {to {stroke-dashoffset:0;}}
    @keyframes zz {to {opacity:1;}}
    svg.acjk path[clip-path] {--t:0.8s;animation:zk var(--t) linear forwards var(--d);stroke-dasharray:3337;stroke-dashoffset:3339;stroke-width:128;stroke-linecap:round;fill:none;}
    svg.acjk path[id] {fill:#ccc;}
    svg.acjk circle, svg.acjk text {opacity:0;animation:zz 0.01s linear forwards var(--d);}
    svg.acjk text {text-anchor:middle;font-family:arial,sans-serif;font-weight:normal;}
    ]]>
    </style>
    <path id="z28180d1" d="M239 193Q266 215 295 243Q311 256 328 255Q340 254 345 240Q349 224 338 191Q326 161 232 141Q214 137 208 141Q202 145 205 159Q209 172 239 193Z"></path>
    <path id="z28180d2" d="M140 388Q194 445 231 459Q246 462 255 447Q261 434 258 417Q243 375 154 349Q153 348 152 348Q134 344 125 348Q119 349 122 362Q123 374 140 388Z"></path>
    <path id="z28180d3" d="M136 745Q126 749 127 766Q139 835 174 855Q181 862 191 859Q198 858 199 834Q208 782 305 531Q312 515 311 510Q310 500 301 506Q292 512 177 702Q164 724 136 745Z"></path>
    <path id="z28180d4" d="M541 221Q586 167 606 152Q616 143 612 131Q611 118 587 95Q565 76 548 74Q530 74 536 95Q548 125 478 220Q445 263 401 309Q391 316 388 323Q384 332 397 331Q421 331 528 234C537 225 537 225 541 221Z"></path>
    <path id="z28180d5" d="M616 370Q635 349 668 310Q707 262 745 236Q763 226 750 212Q737 200 701 180Q692 177 606 205Q578 214 541 221C535 222 523 231 528 234Q543 249 622 236Q643 227 651 233Q655 236 650 246Q614 327 592 365Q588 371 586 376C582 385 610 378 616 370Z"></path>
    <path id="z28180d6" d="M413 410Q401 404 372 399Q360 396 357 401Q350 408 359 424Q393 500 412 623Q415 660 436 685Q454 707 459 691Q462 682 463 671C463 655 463 655 463 647Q462 631 458 610Q434 486 428 445C426 433 425 415 413 410Z"></path>
    <path id="z28180d7" d="M683 644Q702 675 721 683Q731 690 747 669Q765 639 797 478Q806 447 830 420Q843 407 832 393Q816 375 771 349Q755 340 677 359Q644 362 616 370C596 374 596 374 586 376Q552 380 516 389Q461 401 413 410C401 412 417 452 428 445Q437 436 561 414C588 409 588 409 601 407Q713 380 733 398Q748 417 745 434Q717 590 700 616C694 625 676 635 683 644Z"></path>
    <path id="z28180d8" d="M611 527Q647 520 680 515Q702 511 693 499Q683 486 659 482Q640 479 613 487C583 496 583 496 568 500Q525 512 486 524Q470 528 490 541Q497 547 569 535C597 530 597 530 611 527Z"></path>
    <path id="z28180d9" d="M607 617Q608 569 611 527C612 500 612 500 613 487Q619 420 604 409Q603 408 601 407C590 399 559 401 561 414Q564 421 568 500C569 523 569 523 569 535Q569 572 570 625C570 638 607 630 607 617Z"></path>
    <path id="z28180d10" d="M463 671Q475 672 490 671Q599 653 683 644C694 642 709 623 700 616Q693 610 681 608Q665 605 607 617C582 622 582 622 570 625Q512 635 463 647C455 649 455 671 463 671Z"></path>
    <path id="z28180d11" d="M590 805Q630 804 668 800Q761 791 877 804Q899 807 906 799Q913 786 902 775Q874 748 832 729Q819 723 794 731Q734 741 554 761Q298 782 287 782Q274 782 272 792Q271 804 289 818Q305 830 335 842Q345 846 363 838Q375 834 430 826Q502 811 590 805Z"></path>
    <defs>
        <clipPath id="z28180c1"><use xlink:href="#z28180d1"></use></clipPath>
        <clipPath id="z28180c2"><use xlink:href="#z28180d2"></use></clipPath>
        <clipPath id="z28180c3"><use xlink:href="#z28180d3"></use></clipPath>
        <clipPath id="z28180c4"><use xlink:href="#z28180d4"></use></clipPath>
        <clipPath id="z28180c5"><use xlink:href="#z28180d5"></use></clipPath>
        <clipPath id="z28180c6"><use xlink:href="#z28180d6"></use></clipPath>
        <clipPath id="z28180c7"><use xlink:href="#z28180d7"></use></clipPath>
        <clipPath id="z28180c8"><use xlink:href="#z28180d8"></use></clipPath>
        <clipPath id="z28180c9"><use xlink:href="#z28180d9"></use></clipPath>
        <clipPath id="z28180c10"><use xlink:href="#z28180d10"></use></clipPath>
        <clipPath id="z28180c11"><use xlink:href="#z28180d11"></use></clipPath>
    </defs>
    <path style="--d:1s;" pathLength="3333" clip-path="url(#z28180c1)" d="M212 148L298 198L336 247" stroke="rgb(36,144,132)"></path>
    <path style="--d:2s;" pathLength="3333" clip-path="url(#z28180c2)" d="M126 355L250 449" stroke="rgb(103,0,184)"></path>
    <path style="--d:3s;" pathLength="3333" clip-path="url(#z28180c3)" d="M187 855L171 766L303 511" stroke="rgb(189,44,97)"></path>
    <path style="--d:4s;" pathLength="3333" clip-path="url(#z28180c4)" d="M544 78L572 136L395 323" stroke="rgb(131,148,1)"></path>
    <path style="--d:5s;" pathLength="3333" clip-path="url(#z28180c5)" d="M537 234L669 206L703 232L593 367" stroke="rgb(18,142,176)"></path>
    <path style="--d:6s;" pathLength="3333" clip-path="url(#z28180c6)" d="M361 406L400 451L448 690" stroke="rgb(153,127,13)"></path>
    <path style="--d:7s;" pathLength="3333" clip-path="url(#z28180c7)" d="M423 414L708 371L779 396L791 416L740 598L700 666" stroke="rgb(1,147,132)"></path>
    <path style="--d:8s;" pathLength="3333" clip-path="url(#z28180c8)" d="M489 532L689 499" stroke="rgb(129,18,148)"></path>
    <path style="--d:9s;" pathLength="3333" clip-path="url(#z28180c9)" d="M568 420L590 451L588 620" stroke="rgb(166,0,133)"></path>
    <path style="--d:10s;" pathLength="3333" clip-path="url(#z28180c10)" d="M468 663L693 618" stroke="rgb(126,188,5)"></path>
    <path style="--d:11s;" pathLength="3333" clip-path="url(#z28180c11)" d="M279 793L336 811L803 763L903 791" stroke="rgb(22,112,174)"></path>
    <circle cx="229.29014373368386" cy="158.0524091474906" r="40" stroke="rgb(36,144,132)" fill="#fff" stroke-width="5" style="--d: 1s;"></circle>
    <text x="229.29014373368386" y="178.0524091474906" text-anchor="middle" font-family="arial" font-weight="normal" fill="rgb(36,144,132)" font-size="60" style="--d: 1s;">1</text>
    <circle cx="141.93809269054043" cy="367.0821025234742" r="40" stroke="rgb(103,0,184)" fill="#fff" stroke-width="5" style="--d: 2s;"></circle>
    <text x="141.93809269054043" y="387.0821025234742" text-anchor="middle" font-family="arial" font-weight="normal" fill="rgb(103,0,184)" font-size="60" style="--d: 2s;">2</text>
    <circle cx="183.4612247641325" cy="835.3155627504871" r="40" stroke="rgb(189,44,97)" fill="#fff" stroke-width="5" style="--d: 3s;"></circle>
    <text x="183.4612247641325" y="855.3155627504871" text-anchor="middle" font-family="arial" font-weight="normal" fill="rgb(189,44,97)" font-size="60" style="--d: 3s;">3</text>
    <circle cx="552.6949813166235" cy="96.01103272729156" r="40" stroke="rgb(131,148,1)" fill="#fff" stroke-width="5" style="--d: 4s;"></circle>
    <text x="552.6949813166235" y="116.01103272729156" text-anchor="middle" font-family="arial" font-weight="normal" fill="rgb(131,148,1)" font-size="60" style="--d: 4s;">4</text>
    <circle cx="556.5646825020489" cy="229.84991583289874" r="40" stroke="rgb(18,142,176)" fill="#fff" stroke-width="5" style="--d: 5s;"></circle>
    <text x="556.5646825020489" y="249.84991583289874" text-anchor="middle" font-family="arial" font-weight="normal" fill="rgb(18,142,176)" font-size="60" style="--d: 5s;">5</text>
    <circle cx="374.0986107683568" cy="421.11378165579634" r="40" stroke="rgb(153,127,13)" fill="#fff" stroke-width="5" style="--d: 6s;"></circle>
    <text x="374.0986107683568" y="441.11378165579634" text-anchor="middle" font-family="arial" font-weight="normal" fill="rgb(153,127,13)" font-size="60" style="--d: 6s;">6</text>
    <circle cx="442.77617491217694" cy="411.0162262413207" r="40" stroke="rgb(1,147,132)" fill="#fff" stroke-width="5" style="--d: 7s;"></circle>
    <text x="442.77617491217694" y="431.0162262413207" text-anchor="middle" font-family="arial" font-weight="normal" fill="rgb(1,147,132)" font-size="60" style="--d: 7s;">7</text>
    <circle cx="508.7331858173578" cy="528.744024340136" r="40" stroke="rgb(129,18,148)" fill="#fff" stroke-width="5" style="--d: 8s;"></circle>
    <text x="508.7331858173578" y="548.744024340136" text-anchor="middle" font-family="arial" font-weight="normal" fill="rgb(129,18,148)" font-size="60" style="--d: 8s;">8</text>
    <circle cx="579.5749401188225" cy="436.31014289470437" r="40" stroke="rgb(166,0,133)" fill="#fff" stroke-width="5" style="--d: 9s;"></circle>
    <text x="579.5749401188225" y="456.31014289470437" text-anchor="middle" font-family="arial" font-weight="normal" fill="rgb(166,0,133)" font-size="60" style="--d: 9s;">9</text>
    <circle cx="487.6116135138184" cy="659.0776772972363" r="40" stroke="rgb(126,188,5)" fill="#fff" stroke-width="5" style="--d: 10s;"></circle>
    <text x="487.6116135138184" y="679.0776772972363" text-anchor="middle" font-family="arial" font-weight="normal" fill="rgb(126,188,5)" font-size="60" style="--d: 10s;">10</text>
    <circle cx="298.0716533026828" cy="799.0226273587419" r="40" stroke="rgb(22,112,174)" fill="#fff" stroke-width="5" style="--d: 11s;"></circle>
    <text x="298.0716533026828" y="819.0226273587419" text-anchor="middle" font-family="arial" font-weight="normal" fill="rgb(22,112,174)" font-size="60" style="--d: 11s;">11</text>
    </svg>